<svg xmlns="http://www.w3.org/2000/svg" id="business-team-working-together-for-target-achievement" viewBox="0 0 1024 768">
  <line x1="106.52" x2="917.48" y1="689.08" y2="689.08" style="stroke:#003149;fill:none;stroke-miterlimit:10;stroke-width:5px"></line>
  <g>
    <g>
      <line x1="218.63" x2="205.28" y1="538.19" y2="689.68" style="stroke-linecap:round;stroke-linejoin:round;stroke:#003149;fill:none;stroke-width:4px"></line>
      <line x1="269.33" x2="282.69" y1="538.19" y2="689.68" style="stroke-linecap:round;stroke-linejoin:round;stroke:#003149;fill:none;stroke-width:4px"></line>
      <line x1="340.84" x2="354.19" y1="538.19" y2="689.68" style="stroke-linecap:round;stroke-linejoin:round;stroke:#003149;fill:none;stroke-width:4px"></line>
      <path d="M185.04,368.72h99.76c5.35,0,9.89,3.94,10.64,9.24l20.23,142.91h25.21c13.83,0,25.05,11.22,25.05,25.05h-158.85c-5.35,0-9.89-3.94-10.64-9.24l-22.04-155.7c-.92-6.47,4.11-12.26,10.64-12.26Z" style="stroke-linecap:round;stroke-linejoin:round;stroke:#003149;fill:#003149"></path>
    </g>
    <g>
      <rect width="378.64" height="268.59" x="295.79" y="87.14" style="stroke-linecap:round;stroke-linejoin:round;stroke:#003149;fill:#fff;stroke-width:2px"></rect>
      <rect width="28.5" height="82.54" x="477.91" y="219.14" style="stroke-linecap:round;stroke-linejoin:round;stroke:#003149;fill:#25a18e"></rect>
      <rect width="28.5" height="112.92" x="522.13" y="188.76" style="stroke-linecap:round;stroke-linejoin:round;stroke:#003149;fill:#25a18e"></rect>
      <rect width="28.5" height="56.46" x="566.35" y="245.22" style="stroke-linecap:round;stroke-linejoin:round;stroke:#003149;fill:#25a18e"></rect>
      <rect width="28.5" height="69.31" x="610.56" y="232.37" style="stroke-linecap:round;stroke-linejoin:round;stroke:#003149;fill:#25a18e"></rect>
      <line x1="465.3" x2="651.67" y1="301.68" y2="301.68" style="stroke-linecap:round;stroke-linejoin:round;stroke:#003149;fill:none"></line>
      <rect width="161.15" height="12.28" x="477.91" y="128.58" style="stroke-linecap:round;stroke-linejoin:round;stroke:#003149;fill:#003149"></rect>
      <line x1="477.91" x2="520.98" y1="153.14" y2="153.14" style="stroke-linecap:round;stroke-linejoin:round;stroke:#003149;fill:none"></line>
      <line x1="477.91" x2="571.83" y1="165.42" y2="165.42" style="stroke-linecap:round;stroke-linejoin:round;stroke:#003149;fill:none"></line>
      <path d="M427.71,211.73l-41.19-35.49,6.41,53.99c-2.11.25-4.25.38-6.41.38-30.03,0-54.37-24.35-54.37-54.37s24.35-54.37,54.37-54.37,54.37,24.35,54.37,54.37c0,13.57-4.98,25.98-13.19,35.49Z" style="stroke-linecap:round;stroke-linejoin:round;stroke:#003149;fill:#669cbd"></path>
      <path d="M427.71,211.73c-8.66,10.04-20.92,16.88-34.78,18.5l-6.41-53.99,41.19,35.49Z" style="stroke-linecap:round;stroke-linejoin:round;stroke:#003149;fill:#fff"></path>
    </g>
    <g>
      <g>
        <path d="M718.93,590.36c-3.28,29.18-9.71,57-9.71,57,0,0-1.74,13.68-13.59,24.66-11.85,10.98-43.5,8-43.5,8,10.82-7.67,22.93-20.39,29.45-27.59,3.11-3.43,4.94-7.8,5.22-12.4l2.94-48.23,29.19-1.45Z" style="stroke-linecap:round;stroke-linejoin:round;stroke:#003149;fill:#fdf0d6"></path>
        <path d="M709.22,647.35l2.56,40.31h-7.15s-3.9-8.89-3.9-8.89l-7.42,7.58c-1.63,1.67-3.87,2.61-6.21,2.61h-38.45c-1.85,0-3.07-1.96-2.21-3.6,2.79-5.36,9.2-14.93,19.89-16.2,0,0,12.97-3.3,20.2,4.36,0,0,18.64-7.66,22.69-26.17Z" style="stroke-linecap:round;stroke-linejoin:round;stroke:#003149;fill:#003149"></path>
      </g>
      <g>
        <path d="M785.82,585.9c-3.28,29.18-5.11,61.58-5.11,61.58,0,0-1.74,13.68-13.59,24.66-11.85,10.98-43.5,8-43.5,8,10.82-7.67,22.93-20.39,29.45-27.59,3.11-3.43,4.94-7.8,5.22-12.4l-2.96-52.98,30.49-1.28Z" style="stroke-linecap:round;stroke-linejoin:round;stroke:#003149;fill:#fdf0d6"></path>
        <path d="M780.71,647.47l2.56,40.31h-7.15s-3.9-8.89-3.9-8.89l-7.42,7.58c-1.63,1.67-3.87,2.61-6.21,2.61h-38.45c-1.85,0-3.07-1.96-2.21-3.6,2.79-5.36,9.2-14.93,19.89-16.2,0,0,12.97-3.3,20.2,4.36,0,0,18.64-7.66,22.69-26.17Z" style="stroke-linecap:round;stroke-linejoin:round;stroke:#003149;fill:#003149"></path>
      </g>
      <path d="M789.07,597.45l3.15-162.97s0-67.46-25.85-88.89h-63.36s-28.68,21.12-28.05,95.51l11.98,158.56s48.03,8.97,102.13-2.21Z" style="stroke-linecap:round;stroke-linejoin:round;stroke:#003149;fill:#003149"></path>
      <ellipse cx="667.08" cy="313.41" rx="10.48" ry="25.56" style="stroke-linecap:round;stroke-linejoin:round;stroke:#003149;fill:#003149" transform="rotate(-50 667.082 313.415)"></ellipse>
      <path d="M805.78,332.8c10.71-.57,19.2-4.62,18.97-9.05-.23-4.43-9.1-7.56-19.8-6.99-10.71.57-21.88,4.62-21.65,9.05.23,4.43,11.77,7.56,22.48,6.99Z" style="stroke-linecap:round;stroke-linejoin:round;stroke:#003149;fill-rule:evenodd;fill:#003149"></path>
      <path d="M791.45,258.96c-12.4-7.84-31.5-12.48-57.3-13.93-19.43-.63-33.99,2.43-43.68,9.18-9.69,6.75-21.84,21.77-36.46,45.05,15.57,0,26.85,8.93,33.83,26.79l5.52-8.73c1.68,3.7,4.03,6.61,7.05,8.73l-11.17,33.47c29.41,20.22,61.58,22.99,92.79,7.98l-3.89-33.31,5.85-8.94c7.02-4.71,13.63-6.6,20.95-7.25,7.33-.65,13.9,1.01,19.71,5-9.74-34.86-20.81-56.21-33.21-64.05Z" style="stroke-linecap:round;stroke-linejoin:round;stroke:#003149;fill-rule:evenodd;fill:#fff"></path>
      <path d="M737.19,244.99c-16.72,1.23-26.18-1.04-28.36-6.8-3.28-8.64,6.27-10.15,9.38-22.78,3.11-12.63-3.05-27.27,9.94-39.59,12.98-12.32,37.11-8.2,45.52,1.66,8.41,9.86,5.74,20.85,9,32.44,3.26,11.59,14.68,18.44,11.52,30.32-3.16,11.88-26.65,9.82-37.55,7.66-7.26-1.44-13.74-2.41-19.43-2.91Z" style="stroke-linecap:round;stroke-linejoin:round;stroke:#003149;fill-rule:evenodd;fill:#003149"></path>
      <path d="M724.69,198.86l-1.41,16.07c-.37,4.2.08,8.43,1.33,12.46,1.2,3.87,4.02,7.03,7.73,8.66l.12.05h0l-1.51,17.28c1.99,4.07,5.46,6.32,10.4,6.75,4.95.43,10.71-1.01,17.29-4.33l2.44-34.97c2.63.11,4.97-.89,7.01-3.01,3.05-3.17,3.5-8.5.62-10.97-1.91-1.65-4.57-1.14-7.96,1.53l-.31,3.51c-.06.64-.62,1.11-1.26,1.05s-1.14-.56-1.18-1.2c-.15-2.07-.86-3.91-2.13-5.52-2.23-2.82-8.82-3.1-12.79-7.73-2.65-3.08-4.18-6.59-4.59-10.53-2.56,3.17-4.62,5.37-6.2,6.61-1.57,1.24-4.11,2.66-7.62,4.27Z" style="stroke-linecap:round;stroke-linejoin:round;stroke:#003149;fill-rule:evenodd;fill:#fdf0d6"></path>
      <path d="M762.34,218.17c1.48.13,2.77.85,3.65,1.9.88,1.05,1.37,2.45,1.24,3.92-.13,1.48-.85,2.77-1.9,3.65-1.05.88-2.45,1.37-3.93,1.24s-2.77-.85-3.65-1.9c-.88-1.05-1.37-2.45-1.24-3.92.13-1.48.85-2.77,1.9-3.65,1.05-.88,2.45-1.37,3.93-1.24Z" style="stroke-linecap:round;stroke-linejoin:round;fill:none;stroke:#25a18e"></path>
      <g>
        <path d="M657.88,299.69l-35.38-58.9c.99-4.85.45-9.4-1.63-13.64-2.07-4.24-3.4-9.92-3.98-17.06-4.14.78-5.77,4.69-4.89,11.73l-23.92-19.78c-1.27-1.05-3.1-1.03-4.35.03h0l-3.07-1.84c-1.11-.67-2.49-.71-3.64-.1-1.14.6-1.85,1.77-1.87,3.06v.05c-.01,1.4.32,2.79.98,4.03l3.89,7.37h0c-1.48.63-1.32,2.72.47,6.29,2.7,5.35,12.37,19.66,16.72,23.2,2.9,2.36,5.06,3.96,6.49,4.79l28.29,76.37c2.95,7.96,9.31,14.18,17.33,16.95,7.77,2.68,16.38.74,22.24-5.02l14.7-14.44h0c-3.06-7.3-7.21-13.1-12.44-17.41-5.24-4.31-10.55-6.2-15.95-5.7Z" style="stroke-linecap:round;stroke-linejoin:round;stroke:#003149;fill-rule:evenodd;fill:#fdf0d6"></path>
        <path d="M611.99 221.82c-3.4 8.24-2.58 14.87 2.47 19.91M611.99 221.82c-5.56 4.97-9.22 8.92-10.97 11.84M602.81 216.31c-5.42 2.89-9.62 6.81-12.61 11.78" style="stroke-linecap:round;stroke-linejoin:round;stroke:#003149;fill:none"></path>
        <line x1="600.04" x2="583.72" y1="218.01" y2="202.08" style="stroke-linecap:round;stroke-linejoin:round;stroke:#003149;fill:none"></line>
        <line x1="595.25" x2="576.54" y1="221.43" y2="200.83" style="stroke-linecap:round;stroke-linejoin:round;stroke:#003149;fill:none"></line>
        <path d="M580.01,214.64c.82-.42,1.83-.19,2.39.55l8.71,11.4h0" style="stroke-linecap:round;stroke-linejoin:round;stroke:#003149;fill:none"></path>
        <line id="Path-18" x1="657.88" x2="666.04" y1="299.69" y2="311.2" style="stroke-linecap:round;stroke-linejoin:round;stroke:#003149;fill:none"></line>
      </g>
      <path id="Path-211" d="M693.99,318.64c-4.33-9.28-3.39-18.57,2.84-27.85,4.21-6.28,5.14-13.17,2.79-20.66" style="stroke-linecap:round;stroke-linejoin:round;fill:none;stroke:#000"></path>
      <g>
        <path id="Path-213" d="M788.33,328.31l-40.99-18.11c-.83-2.79-3.35-6.02-7.57-9.68-6.33-5.5-8.86-6.89-10.28-9.95-1.43-3.06-8.65,2.03.82,12.06l-15.86-4.77c-1.16-.35-2.47-.09-3.27.83-1.09,1.25-.68,2.99,1.24,5.22-2.37,1.89-2.45,4.28-.22,7.18-1.65,2.06-1.32,4.43,1.01,7.1-.97,1.78-.51,3.72,1.38,5.81,1.89,2.09,9.32,4.49,22.29,7.21l56.7,34.2c7.97,4.81,18.2,4.46,25.49-1.34,7.16-5.69,10.14-15.17,7.51-23.94l-5.77-19.26h0c-3.55-2.44-8.84-3.39-15.87-2.83-7.03.56-12.97,2.45-17.81,5.68l1.19,4.61Z" style="stroke-linecap:round;stroke-linejoin:round;stroke:#003149;fill-rule:evenodd;fill:#fdf0d6"></path>
        <line id="Path-215" x1="712.43" x2="718.1" y1="303.89" y2="305.58" style="stroke-linecap:round;stroke-linejoin:round;stroke:#003149;fill:none"></line>
        <line id="Path-216" x1="712.2" x2="717.03" y1="311.07" y2="312.39" style="stroke-linecap:round;stroke-linejoin:round;stroke:#003149;fill:none"></line>
        <line id="Path-217" x1="713.21" x2="717.29" y1="318.16" y2="319.71" style="stroke-linecap:round;stroke-linejoin:round;stroke:#003149;fill:none"></line>
        <line id="Path-2" x1="788.33" x2="810.91" y1="328.31" y2="338.13" style="stroke-linecap:round;stroke-linejoin:round;stroke:#003149;fill:none"></line>
      </g>
      <path d="M732.47,236.1s9.26,2.09,20.57-6.42c0,0-5.09,10.26-21.26,14.33l.69-7.91Z" style="stroke-linecap:round;stroke-linejoin:round;stroke:#003149;fill-rule:evenodd;fill:#003149"></path>
      <g>
        <path d="M731.59,224.39c3.59-.04,6.87-2.22,7.08-2.25,0,0,.13,3.32-2.45,4.12-2.58.8-4.63-1.87-4.63-1.87Z" style="stroke-linecap:round;stroke-linejoin:round;stroke:#003149;fill:#fff"></path>
        <path d="M732.81,211.75l-2.57,5.04c-.45.89-.1,1.97.79,2.42l1.3.66" style="stroke-linecap:round;stroke-linejoin:round;stroke:#003149;fill:none"></path>
        <ellipse cx="739.8" cy="209.77" rx="1" ry="1.86" style="fill:#003149" transform="rotate(-.66 738.448 209.134)"></ellipse>
        <ellipse cx="726.78" cy="209.92" rx="1" ry="1.86" style="fill:#003149" transform="rotate(-.66 725.422 209.927)"></ellipse>
        <path d="M737.43 203.25s4.15-.55 6.75 1.75M725.37 202.86s2.38-.64 4.63.3" style="stroke-linecap:round;stroke-linejoin:round;stroke:#003149;fill:none"></path>
      </g>
    </g>
    <g>
      <path d="M797.79,167.91c-5.93-5.4-9.46-12.15-9.46-19.48,0-17.73,20.63-32.11,46.08-32.11,25.45,0,46.08,14.37,46.08,32.11,0,17.73-20.63,32.11-46.08,32.11-8.4,0-16.27-1.57-23.05-4.31l-23.03,13.72,9.46-22.04Z" style="stroke-linecap:round;stroke-linejoin:round;fill-rule:evenodd;fill:none;stroke:#25a18e"></path>
      <g>
        <line x1="862.25" x2="806.57" y1="136.62" y2="136.62" style="stroke-linecap:round;stroke-linejoin:round;stroke:#003149;fill:none;stroke-width:2px"></line>
        <line x1="862.25" x2="806.57" y1="148.44" y2="148.44" style="stroke-linecap:round;stroke-linejoin:round;stroke:#003149;fill:none;stroke-width:2px"></line>
        <line x1="862.25" x2="806.57" y1="160.25" y2="160.25" style="stroke-linecap:round;stroke-linejoin:round;stroke:#003149;fill:none;stroke-width:2px"></line>
      </g>
    </g>
    <g>
      <path d="M226.21,243.68c5.93-5.4,9.46-12.15,9.46-19.48,0-17.73-20.63-32.11-46.08-32.11s-46.08,14.37-46.08,32.11,20.63,32.11,46.08,32.11c8.4,0,16.27-1.57,23.05-4.31l23.03,13.72-9.46-22.04Z" style="stroke-linecap:round;stroke-linejoin:round;fill-rule:evenodd;fill:none;stroke:#25a18e"></path>
      <g>
        <line x1="161.75" x2="217.43" y1="212.38" y2="212.38" style="stroke-linecap:round;stroke-linejoin:round;stroke:#003149;fill:none;stroke-width:2px"></line>
        <line x1="161.75" x2="217.43" y1="224.2" y2="224.2" style="stroke-linecap:round;stroke-linejoin:round;stroke:#003149;fill:none;stroke-width:2px"></line>
        <line x1="161.75" x2="217.43" y1="236.02" y2="236.02" style="stroke-linecap:round;stroke-linejoin:round;stroke:#003149;fill:none;stroke-width:2px"></line>
      </g>
    </g>
    <g>
      <g>
        <path d="M338.86,601.39l-3.32,49.35c-.2,2.89.75,5.75,2.63,7.96l20.49,24.05-26.88,1.16-16.83-20.78c-4.12-9.98-7.77-34.48-10.69-60.74l34.6-1Z" style="stroke-linecap:round;stroke-linejoin:round;stroke:#003149;fill:#fdf0d6"></path>
        <path d="M313.34,658.2c-3.65,1.24-3.13,7.19-3.13,7.19l1.02,23.68,6.23-.27-.64-14.83,13.18,14.29,41.46-1.79c1.79-.08,2.68-2.21,1.47-3.53l-1.08-1.18c-3.23-3.54-7.87-5.47-12.66-5.27l-16.3.7c-2.73.12-5.39-.82-7.44-2.63l-16.22-14.29c-1.62-1.43-3.74-2.18-5.9-2.08h0Z" style="stroke-linecap:round;stroke-linejoin:round;stroke:#003149;fill:#25a18e"></path>
      </g>
      <g>
        <path d="M430.52,598.48l13.82,50.71c.51,1.87,1.38,3.61,2.56,5.14l19.67,25.51-26.88,1.16-16.83-20.78c-4.12-9.98-13.56-29.43-23.51-57.82l31.17-3.93Z" style="stroke-linecap:round;stroke-linejoin:round;stroke:#003149;fill:#fdf0d6"></path>
        <path d="M421.24,655.29c-3.65,1.24-3.13,7.19-3.13,7.19l1.02,23.68,6.23-.27-.64-14.83,13.18,14.29,41.46-1.79c1.79-.08,2.68-2.21,1.47-3.53l-1.08-1.18c-3.23-3.54-7.87-5.47-12.66-5.27l-16.3.7c-2.73.12-5.39-.82-7.44-2.63l-16.22-14.29c-1.62-1.43-3.74-2.18-5.9-2.08h0Z" style="stroke-linecap:round;stroke-linejoin:round;stroke:#003149;fill:#25a18e"></path>
      </g>
      <path d="M364.14,458.61l-76.28,2.15-6.08,18.68c-6.76,20.77,9.71,41.77,31.49,40.16l42.52-3.14,58.62,130.93s14.81,4.12,35.74,0l-53.66-165.94c-4.51-13.95-17.69-23.26-32.34-22.84Z" style="stroke-linecap:round;stroke-linejoin:round;stroke:#003149;fill-rule:evenodd;fill:#25a18e"></path>
      <path d="M307.14,650.83s14.81,4.12,35.74,0l-4.77-166.26c-.37-12.93-10.96-23.22-23.9-23.22h-4.72c-1.78,0-3.39-1.03-4.14-2.65l-4.82-10.44-73.77-1.03-11.59,35.65c-6.75,20.77,9.71,41.77,31.49,40.16l42.52-3.14,17.95,130.93Z" style="stroke-linecap:round;stroke-linejoin:round;stroke:#003149;fill-rule:evenodd;fill:#25a18e"></path>
      <path d="m339.29 517.73-.95-33.16c-.37-12.93-10.96-23.22-23.9-23.22h-7.63M322.65 644.95l-14.79-145.12c-.58-5.67-5.67-9.77-11.33-9.14l-45.73 5.11c-10.91 1.33-19.41-9.28-15.74-19.63l10.02-28.29" style="stroke-linecap:round;stroke-linejoin:round;stroke:#003149;fill-rule:evenodd;fill:none"></path>
      <path d="M306.09 643.17s18.88 4.52 36.54-.84M425.86 637.6l-55.05-141.1c-2.39-6.12-8.28-10.14-14.85-10.14h-17.81" style="stroke-linecap:round;stroke-linejoin:round;stroke:#003149;fill-rule:evenodd;fill:none"></path>
      <path d="M409.3,635.82s18.88,4.52,36.54-.84" style="stroke-linecap:round;stroke-linejoin:round;stroke:#003149;fill-rule:evenodd;fill:none"></path>
      <path d="M208.93,398.96l-9.73,25.19c-2.99,10.45,2.72,21.41,13,24.94h0c10.22,3.52,21.4-1.53,25.54-11.51l10.98-26.52-39.78-12.1Z" style="stroke-linecap:round;stroke-linejoin:round;stroke:#003149;fill-rule:evenodd;fill:#fdf0d6"></path>
      <path d="M348.89,424.88l-20.56,1.45-2.19-20.68-29.61,4.61,3.14,26.57c.84,7.11,7.46,12.07,14.52,10.88,10.8-1.82,25.45-4.77,32.14-8.35l7,2.57c1.1.4,2.37.2,3.19-.64,1.27-1.31,1.03-3.39-.41-4.4l-5.8-4.05s11.92,3.15,17.29,4.74c2.73.81,4.54.43,5.65-.13.83-.42.79-1.62-.04-2.02l-19.66-9.64c-1.44-.71-3.05-1.02-4.65-.91Z" style="stroke-linecap:round;stroke-linejoin:round;stroke:#003149;fill:#fdf0d6"></path>
      <path d="M305.64,331.78c4.02-15.44-10.96-23.97-15.15-31.95-4.39-8.37-5.5-30.03-30.45-28.32-30.77,2.1-32.57,19.37-35.56,30.5-2.51,9.34-5.99,12.26-2.69,18.43,3.31,6.17-2.71,10.48-2.71,10.48-8.29,16.56,11.19,40.58,11.19,40.58l80.28-14.61s-10.27-10.08-4.9-25.11Z" style="fill:#1a4a65"></path>
      <path d="M310.29,455.19l.53-43.87,26.61-3.46-13.17-38.72c-4.81-14.15-18.26-23.52-33.2-23.15l-46.5,1.18c-11.75.3-22.1,7.78-26.07,18.84l-15.72,43.82,31.83,5.04-14.71,34.07c-1.42,3.28.5,7.04,3.99,7.81,18.93,4.18,72.43,14.29,86.39-1.56Z" style="stroke-linecap:round;stroke-linejoin:round;stroke:#003149;fill-rule:evenodd;fill:#fff"></path>
      <line x1="328.33" x2="319.41" y1="426.33" y2="432.99" style="stroke-linecap:round;stroke-linejoin:round;stroke:#003149;fill:none"></line>
      <path d="M283.32,316.15l-4.37-23.23-10.66,1.46-4.69-7.26,1.2,7.98-16.45,4.31c.87,2.21,1.47,5.35,1.38,8.27-2.07-1.3-4.27-1.61-5.9-.6-2.76,1.71-2.87,6.55-.23,10.8,1.3,2.1,3.04,3.66,4.79,4.5l.62,22.81c.21,7.69,7.02,13.66,14.63,12.56.44-.06.88-.14,1.32-.23.06-.01.11-.02.16-.03,7.78-1.62,12.14-9.98,9.27-17.4l-2.34-6.03,3.64-1.42c2.93-1.15,5.31-3.4,6.54-6.29,1.36-3.23,1.74-6.78,1.1-10.21Z" style="stroke-linecap:round;stroke-linejoin:round;stroke:#003149;fill:#fdf0d6"></path>
      <g>
        <path d="M275.58,322.28c-3.77.79-7.7-.72-7.92-.71,0,0,.63,3.5,3.52,3.74,2.89.24,4.41-3.03,4.41-3.03Z" style="stroke-linecap:round;stroke-linejoin:round;stroke:#003149;fill:#fff"></path>
        <path d="M271.36,309.35l3.86,4.67c.68.82.56,2.04-.26,2.71l-1.2.99" style="stroke-linecap:round;stroke-linejoin:round;stroke:#003149;fill:none"></path>
        <ellipse cx="263.6" cy="308.91" rx="1.07" ry="1.99" style="fill:#003149" transform="rotate(-11.89 263.61 308.91)"></ellipse>
        <ellipse cx="277.25" cy="306.03" rx="1.07" ry="1.99" style="fill:#003149" transform="rotate(-11.89 277.253 306.06)"></ellipse>
        <path d="M264.56 301.54s-4.47.39-6.66 3.4M277.08 298.32s-2.63-.11-4.78 1.39" style="stroke-linecap:round;stroke-linejoin:round;stroke:#003149;fill:none"></path>
      </g>
      <path d="M272.05,334.08c-5.46,1.95-17.44-1.81-19.89-7.64,0,0,1.77,14.91,22.7,15.16l-2.82-7.51Z" style="stroke-linecap:round;stroke-linejoin:round;stroke:#003149;fill-rule:evenodd;fill:#003149"></path>
      <rect width="42.91" height="55.34" x="257.41" y="342.31" rx="2.28" ry="2.28" style="stroke-linecap:round;stroke-linejoin:round;stroke:#003149;fill:#fff" transform="rotate(-18.5 278.798 369.92)"></rect>
      <path d="M206.09,445.64c12.17,8.27,31.21,5.27,36.59-13.58l16.05-36.39s5.17-.72,6.72-9.13l6.94-6.57,2.82-1.53c.71-.38.94-1.28.52-1.97-.37-.59-1.12-.82-1.75-.54l-5.42,2.4,3.96-3.19,4.25-.15c.88-.03,1.59-.75,1.61-1.63.02-.88-.64-1.62-1.52-1.7l-4.59-.43-4.01,1.8,3.81-2.72,5.37.25c.84.04,1.58-.52,1.78-1.33.24-.97-.38-1.94-1.36-2.13l-6.56-1.29-4,2.02,6.88-4.35c3.32-1.71,3.97-3.56,3.92-4.81-.03-.8-.86-1.31-1.59-1l-20.62,8.89c-1.89.82-3.39,2.33-4.19,4.23l-6.34,15.08-32.68,49.34" style="stroke-linecap:round;stroke-linejoin:round;stroke:#003149;fill-rule:evenodd;fill:#fdf0d6"></path>
      <line x1="267.29" x2="262.91" y1="367.84" y2="370.6" style="stroke-linecap:round;stroke-linejoin:round;stroke:#003149;fill:none"></line>
      <line x1="268.25" x2="263.2" y1="373.04" y2="376.47" style="stroke-linecap:round;stroke-linejoin:round;stroke:#003149;fill:none"></line>
      <line x1="268.55" x2="264.6" y1="378.34" y2="381.25" style="stroke-linecap:round;stroke-linejoin:round;stroke:#003149;fill:none"></line>
    </g>
    <g>
      <path d="M196.03 689.68c3.42 0 6.27-2.69 6.43-6.14l10.19-221.82c.16-3.55-2.58-6.56-6.14-6.73-3.56-.16-6.56 2.58-6.73 6.14l-10.19 221.82c-.16 3.55 2.58 6.56 6.14 6.73.1 0 .2 0 .3 0ZM541.99 689.68c.1 0 .2 0 .3 0 3.55-.16 6.3-3.18 6.14-6.73l-10.19-221.82c-.16-3.55-3.22-6.27-6.73-6.14-3.55.16-6.3 3.18-6.14 6.73l10.19 221.82c.16 3.45 3.01 6.14 6.43 6.14Z" style="stroke-linecap:round;stroke-linejoin:round;stroke:#003149;fill:#669cbd"></path>
      <polygon points="164.25 466.92 562.01 466.92 562.01 466.92 562.01 451.63 164.25 451.63 164.25 466.92" style="stroke-linecap:round;stroke-linejoin:round;stroke:#003149;fill:#669cbd"></polygon>
    </g>
    <g id="Laptop">
      <path id="Rectangle-Copy-5" d="M353.36,374.04h94.01c1.79,0,3.24,1.45,3.24,3.24,0,.2-.02.41-.06.6l-12.62,66.43c-.29,1.53-1.63,2.64-3.18,2.64h-94.01c-1.79,0-3.24-1.45-3.24-3.24,0-.2.02-.41.06-.6l12.62-66.43c.29-1.53,1.63-2.64,3.18-2.64Z" style="stroke-linecap:round;stroke-linejoin:round;stroke:#003149;fill-rule:evenodd;fill:#003149"></path>
      <path id="Rectangle-Copy-4" d="M299.77,444.71h136.5c1.79,0,3.24,1.45,3.24,3.24v.44c0,1.79-1.45,3.24-3.24,3.24h-136.5c-1.79,0-3.24-1.45-3.24-3.24v-.44c0-1.79,1.45-3.24,3.24-3.24Z" style="stroke-linecap:round;stroke-linejoin:round;stroke:#003149;fill-rule:evenodd;fill:#003149"></path>
      <path d="M356.13,374.04h94.01c1.79,0,3.24,1.45,3.24,3.24,0,.2-.02.41-.06.6l-12.62,66.43c-.29,1.53-1.63,2.64-3.18,2.64h-94.01c-1.79,0-3.24-1.45-3.24-3.24,0-.2.02-.41.06-.6l12.62-66.43c.29-1.53,1.63-2.64,3.18-2.64Z" style="stroke-linecap:round;stroke-linejoin:round;stroke:#003149;fill-rule:evenodd;fill:#669cbd"></path>
      <circle cx="397.34" cy="410.65" r="8.91" style="fill:#fff"></circle>
    </g>
  </g>
</svg>
